<svg width="122" height="113" viewBox="0 0 122 113" fill="none" xmlns="http://www.w3.org/2000/svg">
<circle cx="51.4309" cy="51.4309" r="49.6104" stroke="#070707" stroke-width="3.64113"/>
<circle cx="70.5476" cy="61.4441" r="51.4309" fill="#070707"/>
<path d="M63.198 46.5332C63.198 45.0759 63.5623 43.74 64.291 42.5256C65.0196 41.3111 66.1126 40.3531 67.5699 39.6514C69.0272 38.9228 70.8084 38.5585 72.9134 38.5585C74.9914 38.5585 76.759 38.9228 78.2164 39.6514C79.7007 40.3531 80.8071 41.3111 81.5358 42.5256C82.2644 43.74 82.6288 45.0759 82.6288 46.5332C82.6288 48.0445 82.2374 49.3803 81.4548 50.5408C80.6992 51.6742 79.6872 52.5513 78.4188 53.172C79.957 53.7657 81.1715 54.7103 82.062 56.0057C82.9526 57.3011 83.3979 58.8528 83.3979 60.661C83.3979 62.4961 82.9526 64.1018 82.062 65.4782C81.1715 66.8275 79.93 67.88 78.3378 68.6357C76.7456 69.3643 74.9374 69.7287 72.9134 69.7287C70.8893 69.7287 69.0812 69.3643 67.4889 68.6357C65.9237 67.88 64.6958 66.8275 63.8052 65.4782C62.9146 64.1018 62.4693 62.4961 62.4693 60.661C62.4693 58.8258 62.9146 57.2606 63.8052 55.9652C64.6958 54.6698 65.8967 53.7387 67.408 53.172C64.6013 51.7687 63.198 49.5557 63.198 46.5332ZM67.6509 47.1404C67.6509 48.4897 68.1366 49.5962 69.1082 50.4598C70.1067 51.2964 71.3751 51.7147 72.9134 51.7147C74.4516 51.7147 75.72 51.2829 76.7186 50.4193C77.7171 49.5557 78.2164 48.4493 78.2164 47.0999C78.2164 45.5886 77.7441 44.4282 76.7995 43.6186C75.855 42.8089 74.5596 42.4041 72.9134 42.4041C71.2941 42.4041 70.0122 42.8089 69.0677 43.6186C68.1231 44.4282 67.6509 45.6021 67.6509 47.1404ZM66.8817 60.499C66.8817 62.1183 67.4215 63.4272 68.501 64.4257C69.5805 65.3972 71.0513 65.883 72.9134 65.883C74.7485 65.883 76.1923 65.3837 77.2448 64.3852C78.3243 63.3867 78.864 62.0913 78.864 60.499C78.864 58.7988 78.3243 57.49 77.2448 56.5724C76.1653 55.6548 74.7215 55.1961 72.9134 55.1961C71.1322 55.1961 69.6749 55.6413 68.5414 56.5319C67.435 57.4225 66.8817 58.7449 66.8817 60.499Z" fill="white"/>
<path d="M48.5994 77.801C49.4307 77.801 50.1679 77.9892 50.8109 78.3657C51.4618 78.7421 51.9519 79.291 52.2813 80.0125H51.2814C51.0305 79.5342 50.6698 79.1656 50.1992 78.9068C49.7287 78.648 49.1954 78.5186 48.5994 78.5186C47.9799 78.5186 47.4192 78.6598 46.9173 78.9421C46.4232 79.2244 46.0311 79.6243 45.741 80.1419C45.4586 80.6595 45.3175 81.2594 45.3175 81.9417C45.3175 82.624 45.4586 83.2239 45.741 83.7415C46.0311 84.259 46.4232 84.659 46.9173 84.9413C47.4192 85.2236 47.9799 85.3648 48.5994 85.3648C49.1954 85.3648 49.7287 85.2354 50.1992 84.9766C50.6698 84.71 51.0305 84.3375 51.2814 83.8591H52.2813C51.9519 84.5806 51.4618 85.1295 50.8109 85.506C50.1679 85.8824 49.4307 86.0706 48.5994 86.0706C47.8387 86.0706 47.1408 85.8941 46.5056 85.5412C45.8782 85.1883 45.3802 84.6982 45.0116 84.0708C44.6509 83.4435 44.4705 82.7337 44.4705 81.9417C44.4705 81.1496 44.6509 80.4399 45.0116 79.8125C45.3802 79.1773 45.8782 78.6833 46.5056 78.3304C47.1408 77.9775 47.8387 77.801 48.5994 77.801ZM56.6252 79.4596C57.229 79.4596 57.774 79.6008 58.2603 79.8831C58.7465 80.1576 59.1307 80.5458 59.4131 81.0477C59.6954 81.5496 59.8365 82.1299 59.8365 82.7886C59.8365 83.4395 59.6875 84.0199 59.3895 84.5296C59.0915 85.0315 58.6877 85.4236 58.1779 85.7059C57.6682 85.9804 57.1114 86.1176 56.5075 86.1176C55.9115 86.1176 55.3783 85.9804 54.9077 85.7059C54.4372 85.4236 54.0686 85.0315 53.802 84.5296C53.5432 84.0277 53.4138 83.4474 53.4138 82.7886C53.4138 82.1299 53.555 81.5496 53.8373 81.0477C54.1196 80.5458 54.5039 80.1576 54.9901 79.8831C55.4763 79.6008 56.0213 79.4596 56.6252 79.4596ZM56.5781 80.1184C56.1468 80.1184 55.7547 80.2243 55.4018 80.436C55.0489 80.6399 54.7666 80.9418 54.5548 81.3418C54.3509 81.7417 54.249 82.224 54.249 82.7886C54.249 83.3454 54.347 83.8277 54.5431 84.2355C54.7391 84.6355 55.0058 84.9413 55.343 85.1531C55.688 85.357 56.0762 85.4589 56.5075 85.4589C56.9389 85.4589 57.3427 85.353 57.7191 85.1413C58.0956 84.9296 58.3975 84.6237 58.6249 84.2238C58.8602 83.8238 58.9778 83.3454 58.9778 82.7886C58.9778 82.2319 58.868 81.7535 58.6484 81.3535C58.4289 80.9457 58.1348 80.6399 57.7662 80.436C57.4055 80.2243 57.0094 80.1184 56.5781 80.1184ZM63.9063 79.4596C64.3612 79.4596 64.7768 79.5616 65.1532 79.7655C65.5375 79.9615 65.8433 80.2674 66.0708 80.683C66.2982 81.0908 66.4119 81.5888 66.4119 82.177V86H65.6002V82.3299C65.6002 81.6241 65.4277 81.0869 65.0827 80.7183C64.7454 80.3497 64.2828 80.1654 63.6946 80.1654C63.0986 80.1654 62.6281 80.3497 62.283 80.7183C61.9458 81.0869 61.7772 81.6241 61.7772 82.3299V86H60.9538V79.5773H61.7772V80.6242C61.9968 80.2399 62.2908 79.9498 62.6594 79.7537C63.0359 79.5577 63.4515 79.4596 63.9063 79.4596ZM68.9689 80.2243V84.4826C68.9689 84.8041 69.0317 85.0315 69.1571 85.1648C69.2826 85.2903 69.5061 85.353 69.8276 85.353H70.7452V86H69.6512C68.6474 86 68.1455 85.4942 68.1455 84.4826V80.2243H67.2515V79.5773H68.1455V77.9657H68.9689V79.5773H70.7452V80.2243H68.9689ZM71.4612 77.754C71.4612 77.5893 71.52 77.4481 71.6376 77.3305C71.7553 77.2129 71.8964 77.1541 72.0611 77.1541C72.2336 77.1541 72.3748 77.2129 72.4846 77.3305C72.6022 77.4481 72.661 77.5893 72.661 77.754C72.661 77.9265 72.6022 78.0716 72.4846 78.1892C72.3748 78.3069 72.2336 78.3657 72.0611 78.3657C71.8964 78.3657 71.7553 78.3069 71.6376 78.1892C71.52 78.0716 71.4612 77.9265 71.4612 77.754ZM72.461 79.5773V86H71.6376V79.5773H72.461ZM76.9396 79.4596C77.3945 79.4596 77.8101 79.5616 78.1865 79.7655C78.5708 79.9615 78.8766 80.2674 79.1041 80.683C79.3315 81.0908 79.4452 81.5888 79.4452 82.177V86H78.6335V82.3299C78.6335 81.6241 78.461 81.0869 78.1159 80.7183C77.7787 80.3497 77.316 80.1654 76.7279 80.1654C76.1319 80.1654 75.6614 80.3497 75.3163 80.7183C74.9791 81.0869 74.8105 81.6241 74.8105 82.3299V86H73.9871V79.5773H74.8105V80.6242C75.0301 80.2399 75.3241 79.9498 75.6927 79.7537C76.0691 79.5577 76.4848 79.4596 76.9396 79.4596ZM86.6958 82.4475C86.6958 82.6749 86.6801 82.8867 86.6487 83.0827H81.3552C81.3866 83.8199 81.6101 84.4002 82.0258 84.8237C82.4414 85.2472 82.9668 85.4589 83.602 85.4589C84.0961 85.4589 84.5156 85.3452 84.8607 85.1178C85.2136 84.8903 85.4567 84.5923 85.59 84.2238H86.4723C86.2605 84.7727 85.9155 85.2276 85.4371 85.5883C84.9587 85.9412 84.347 86.1176 83.602 86.1176C82.9982 86.1176 82.461 85.9804 81.9905 85.7059C81.5278 85.4236 81.1631 85.0315 80.8965 84.5296C80.6377 84.0277 80.5083 83.4474 80.5083 82.7886C80.5083 82.1221 80.6416 81.5378 80.9082 81.0359C81.1749 80.534 81.5474 80.1458 82.0258 79.8714C82.512 79.5969 83.0727 79.4596 83.7079 79.4596C84.3039 79.4596 84.8254 79.593 85.2724 79.8596C85.7272 80.1184 86.0762 80.4752 86.3193 80.9301C86.5703 81.3849 86.6958 81.8907 86.6958 82.4475ZM85.8488 82.4357C85.8488 81.9652 85.7508 81.5574 85.5547 81.2124C85.3587 80.8595 85.0881 80.5889 84.7431 80.4007C84.4058 80.2125 84.0255 80.1184 83.602 80.1184C82.9825 80.1184 82.461 80.3262 82.0375 80.7418C81.6219 81.1496 81.3945 81.7143 81.3552 82.4357H85.8488ZM90.7596 79.4596C91.2144 79.4596 91.6301 79.5616 92.0065 79.7655C92.3908 79.9615 92.6966 80.2674 92.924 80.683C93.1514 81.0908 93.2652 81.5888 93.2652 82.177V86H92.4535V82.3299C92.4535 81.6241 92.281 81.0869 91.9359 80.7183C91.5987 80.3497 91.136 80.1654 90.5478 80.1654C89.9518 80.1654 89.4813 80.3497 89.1363 80.7183C88.799 81.0869 88.6304 81.6241 88.6304 82.3299V86H87.807V79.5773H88.6304V80.6242C88.85 80.2399 89.1441 79.9498 89.5127 79.7537C89.8891 79.5577 90.3047 79.4596 90.7596 79.4596ZM95.8222 80.2243V84.4826C95.8222 84.8041 95.8849 85.0315 96.0104 85.1648C96.1359 85.2903 96.3594 85.353 96.6809 85.353H97.5984V86H96.5045C95.5007 86 94.9988 85.4942 94.9988 84.4826V80.2243H94.1048V79.5773H94.9988V77.9657H95.8222V79.5773H97.5984V80.2243H95.8222ZM100.667 79.4596C101.342 79.4596 101.867 79.64 102.243 80.0008C102.628 80.3537 102.839 80.8438 102.879 81.4712H102.032C102.016 81.0791 101.883 80.7575 101.632 80.5066C101.381 80.2478 101.036 80.1184 100.596 80.1184C100.142 80.1184 99.7848 80.2282 99.526 80.4478C99.2751 80.6673 99.1496 80.9379 99.1496 81.2594C99.1496 81.5339 99.2241 81.7535 99.3731 81.9182C99.53 82.075 99.7182 82.1926 99.9378 82.2711C100.157 82.3495 100.467 82.4318 100.867 82.5181C101.322 82.62 101.69 82.7259 101.973 82.8357C102.263 82.9376 102.506 83.1102 102.702 83.3533C102.898 83.5964 102.996 83.9297 102.996 84.3532C102.996 84.6982 102.898 85.0041 102.702 85.2707C102.506 85.5373 102.228 85.7451 101.867 85.8941C101.514 86.0431 101.106 86.1176 100.644 86.1176C99.9456 86.1176 99.3927 85.9373 98.9849 85.5765C98.5771 85.2158 98.3536 84.7257 98.3144 84.1061H99.1614C99.1771 84.5061 99.3182 84.8315 99.5849 85.0825C99.8515 85.3334 100.204 85.4589 100.644 85.4589C101.138 85.4589 101.514 85.3609 101.773 85.1648C102.032 84.9609 102.161 84.6904 102.161 84.3532C102.161 84.0787 102.083 83.863 101.926 83.7062C101.769 83.5415 101.577 83.4199 101.349 83.3415C101.122 83.2553 100.808 83.169 100.408 83.0827C99.9534 82.9808 99.5849 82.8788 99.3025 82.7769C99.0281 82.6749 98.7928 82.5102 98.5967 82.2828C98.4085 82.0554 98.3144 81.7456 98.3144 81.3535C98.3144 81.0085 98.4125 80.6909 98.6085 80.4007C98.8046 80.1105 99.083 79.8831 99.4437 79.7184C99.8044 79.5459 100.212 79.4596 100.667 79.4596Z" fill="white"/>
</svg>
