<svg width="292" height="228" viewBox="0 0 292 228" fill="none" xmlns="http://www.w3.org/2000/svg">
<path fill-rule="evenodd" clip-rule="evenodd" d="M69.7415 159.981C48.0197 152.998 26.3685 144.292 3.20647 144.485C1.8275 144.491 0.697497 143.388 0.681238 142.006C0.674426 140.627 1.77749 139.497 3.15975 139.481C26.8626 139.286 49.0472 148.072 71.2727 155.22C72.5891 155.636 73.3133 157.053 72.8877 158.366C72.4716 159.683 71.0579 160.398 69.7415 159.981Z" fill="#479C2B"/>
<path fill-rule="evenodd" clip-rule="evenodd" d="M82.5701 129.381C78.0075 120.865 72.2912 113.684 64.2321 108.305C63.0805 107.537 62.774 105.985 63.5345 104.835C64.3045 103.689 65.8623 103.381 67.0045 104.145C75.7686 109.993 82.0111 117.761 86.9728 127.017C87.6288 128.234 87.1742 129.752 85.9524 130.403C84.7403 131.055 83.2167 130.596 82.5701 129.381Z" fill="#479C2B"/>
<path fill-rule="evenodd" clip-rule="evenodd" d="M124.741 68.4382C125.338 56.8127 122.151 46.4455 114.935 37.2472C114.085 36.1621 114.273 34.5884 115.363 33.7387C116.443 32.8857 118.018 33.0763 118.869 34.1614C126.854 44.3444 130.396 55.822 129.735 68.6939C129.668 70.0725 128.484 71.1319 127.11 71.0623C125.727 70.9903 124.665 69.8135 124.741 68.4382Z" fill="#479C2B"/>
<path fill-rule="evenodd" clip-rule="evenodd" d="M235.829 91.0699C236.91 93.864 237.744 96.7594 238.28 99.7195C238.52 101.038 238.8 103.759 238.271 105.825C237.716 108.029 236.36 109.58 234.16 109.878C231.237 110.273 229.3 109.451 228.035 108.156C226.817 106.911 226.166 105.072 226.11 102.89C226.006 98.7207 228.176 93.16 230.022 90.1986C228.77 87.5006 227.264 84.9247 225.535 82.4993C212.661 64.4345 186.032 60.1676 160.432 71.5569C151.471 75.5455 143.585 87.7295 136.891 101.507C126.465 122.959 119.265 148.466 116.923 155.858C116.341 157.682 115.797 158.695 115.628 158.877C114.817 159.776 113.938 159.777 113.354 159.69C112.511 159.555 111.931 159.184 111.513 158.742C110.95 158.139 110.606 157.303 110.685 156.226C110.732 155.633 110.959 154.863 111.259 154.062C111.473 153.508 111.799 152.936 111.826 152.495C111.984 149.668 111.971 146.849 111.982 144.018C112.043 134.51 111.068 125.24 109.674 115.835C105.246 85.9524 101.752 54.7901 86.7668 27.9784C86.095 26.7756 86.5209 25.2487 87.7291 24.5767C88.9279 23.9015 90.451 24.3324 91.1318 25.5395C106.419 52.883 110.103 84.6269 114.62 115.102C115.805 123.102 116.693 131.01 116.926 139.038C121.018 126.405 127.167 109.087 134.81 94.5306C141.606 81.5847 149.691 70.8676 158.401 66.9898C186.445 54.5128 215.51 59.8104 229.606 79.5978C231.113 81.7154 232.477 83.9418 233.662 86.2543C249.614 71.9821 273.047 72.1966 288.63 87.1076C289.631 88.0632 289.663 89.6455 288.712 90.6432C287.751 91.6376 286.171 91.674 285.17 90.7185C271.128 77.2822 249.825 77.4887 235.829 91.0699ZM232.398 96.5131C232.786 97.8599 233.104 99.2266 233.362 100.615C233.495 101.358 233.683 102.763 233.531 104.021C233.493 104.314 233.353 104.746 233.284 104.945C232.52 105.039 231.956 105.016 231.613 104.663C231.184 104.225 231.13 103.528 231.11 102.764C231.058 100.847 231.632 98.5285 232.398 96.5131Z" fill="#479C2B"/>
</svg>
