<svg width="36" height="36" viewBox="0 0 36 36" fill="none" xmlns="http://www.w3.org/2000/svg">
<path d="M15.092 2.47156C15.8568 -0.545536 20.1432 -0.545541 20.908 2.47156L23.0213 10.8079C23.2918 11.875 24.125 12.7082 25.1921 12.9787L33.5284 15.092C36.5455 15.8568 36.5455 20.1432 33.5284 20.908L25.1921 23.0213C24.125 23.2918 23.2918 24.125 23.0213 25.1921L20.908 33.5284C20.1432 36.5455 15.8568 36.5455 15.092 33.5284L12.9787 25.1921C12.7082 24.125 11.875 23.2918 10.8079 23.0213L2.47156 20.908C-0.545536 20.1432 -0.545541 15.8568 2.47156 15.092L10.8079 12.9787C11.875 12.7082 12.7082 11.875 12.9787 10.8079L15.092 2.47156Z" fill="#479C2B"/>
</svg>
