<svg width="61" height="61" viewBox="0 0 61 61" fill="none" xmlns="http://www.w3.org/2000/svg">
<path d="M27.592 2.47156C28.3568 -0.54554 32.6432 -0.545541 33.408 2.47156L38.0492 20.78C38.3197 21.8471 39.1529 22.6803 40.22 22.9508L58.5284 27.592C61.5455 28.3568 61.5455 32.6432 58.5284 33.408L40.22 38.0492C39.1529 38.3197 38.3197 39.1529 38.0492 40.22L33.408 58.5284C32.6432 61.5455 28.3568 61.5455 27.592 58.5284L22.9508 40.22C22.6803 39.1529 21.8471 38.3197 20.78 38.0492L2.47156 33.408C-0.54554 32.6432 -0.545541 28.3568 2.47156 27.592L20.78 22.9508C21.8471 22.6803 22.6803 21.8471 22.9508 20.78L27.592 2.47156Z" fill="#479C2B"/>
</svg>
