<svg width="64" height="81" viewBox="0 0 64 81" fill="none" xmlns="http://www.w3.org/2000/svg">
<path fill-rule="evenodd" clip-rule="evenodd" d="M59.8056 1.21006C44.4404 -1.26821 28.9136 0.725959 15.1029 6.91435C1.88422 12.8428 -4.10833 24.9068 4.69253 43.0176C7.34513 48.4897 11.3016 58.0983 11.013 58.4297C10.666 58.879 6.16913 60.8177 4.95253 61.0843C2.33835 61.6408 1.83362 66.3047 7.92025 68.7237C10.8661 69.8905 19.6598 76.487 21.315 78.7761C23.2886 81.5394 24.5551 79.942 23.6586 75.8263C23.13 73.4293 23.0272 69.7635 23.336 64.7205C24.0029 54.4441 23.3531 53.6814 16.528 56.3974C13.7979 57.4838 14.3252 58.1519 10.2276 48.3034C8.30646 43.6571 5.93045 38.3335 4.9556 36.472C-2.82095 21.4671 15.5392 7.44688 45.2288 5.731C61.2615 4.81248 68.369 2.57521 59.8056 1.21006Z" fill="#479C2B"/>
</svg>
