<svg width="163" height="151" viewBox="0 0 163 151" fill="none" xmlns="http://www.w3.org/2000/svg">
<circle cx="68.9371" cy="68.748" r="66.1472" stroke="#479C2B" stroke-width="4.85484"/>
<circle cx="94.4243" cy="82.0988" r="68.5746" fill="#479C2B"/>
<path d="M63.8647 78.2712C64.0913 79.404 64.5784 80.2649 65.326 80.854C66.0737 81.443 67.0819 81.7375 68.3506 81.7375C69.9592 81.7375 71.1373 81.1032 71.8849 79.8345C72.6326 78.5657 73.0064 76.4021 73.0064 73.3435C72.4627 74.1138 71.6924 74.7142 70.6955 75.1447C69.7213 75.5525 68.6565 75.7564 67.501 75.7564C66.0284 75.7564 64.6917 75.4619 63.4909 74.8728C62.2902 74.2611 61.3386 73.3662 60.6363 72.1881C59.9566 70.9873 59.6168 69.5373 59.6168 67.8381C59.6168 65.346 60.3417 63.3636 61.7917 61.891C63.2644 60.3957 65.2807 59.648 67.8409 59.648C70.9221 59.648 73.1084 60.6789 74.3997 62.7406C75.7138 64.7796 76.3708 67.9174 76.3708 72.1541C76.3708 75.0767 76.1216 77.4669 75.6232 79.3247C75.1474 81.1825 74.3091 82.5871 73.1084 83.5387C71.9076 84.4902 70.2424 84.966 68.1127 84.966C65.6885 84.966 63.8194 84.3317 62.5054 83.0629C61.1913 81.7942 60.455 80.1969 60.2964 78.2712H63.8647ZM72.5646 67.8381C72.5646 66.2749 72.1455 65.0628 71.3072 64.2019C70.4916 63.3183 69.3701 62.8765 67.9428 62.8765C66.5155 62.8765 65.3827 63.3296 64.5444 64.2359C63.7288 65.1194 63.321 66.2862 63.321 67.7362C63.321 69.1182 63.7175 70.2623 64.5104 71.1686C65.326 72.0521 66.5495 72.4939 68.1807 72.4939C69.54 72.4939 70.6049 72.0748 71.3752 71.2365C72.1681 70.3756 72.5646 69.2428 72.5646 67.8381ZM81.9022 81.6356C80.5882 79.438 79.9311 76.4134 79.9311 72.5619C79.9311 68.7331 80.5882 65.7198 81.9022 63.5222C83.2389 61.3246 85.5272 60.2258 88.767 60.2258C92.0068 60.2258 94.2837 61.3246 95.5977 63.5222C96.9344 65.7198 97.6028 68.7331 97.6028 72.5619C97.6028 76.4134 96.9344 79.438 95.5977 81.6356C94.2837 83.8332 92.0068 84.932 88.767 84.932C85.5272 84.932 83.2389 83.8332 81.9022 81.6356ZM93.4227 77.1497C93.672 75.9037 93.7966 74.3744 93.7966 72.5619C93.7966 70.7721 93.672 69.2541 93.4227 68.0081C93.1962 66.762 92.7204 65.7425 91.9954 64.9495C91.2704 64.1566 90.1943 63.7601 88.767 63.7601C87.3396 63.7601 86.2635 64.1566 85.5385 64.9495C84.8135 65.7425 84.3264 66.762 84.0772 68.0081C83.8506 69.2541 83.7373 70.7721 83.7373 72.5619C83.7373 74.3744 83.8506 75.9037 84.0772 77.1497C84.3264 78.3958 84.8135 79.4153 85.5385 80.2083C86.2635 81.0012 87.3396 81.3977 88.767 81.3977C90.1943 81.3977 91.2704 81.0012 91.9954 80.2083C92.7204 79.4153 93.1962 78.3958 93.4227 77.1497ZM108.941 75.6544L117.573 85H112.339L105.406 76.9458V85H101.532V59.8519H105.406V74.465L112.203 66.2749H117.573L108.941 75.6544ZM137.919 74.465H131.088V81.3977H127.418V74.465H120.587V70.9986H127.418V64.0659H131.088V70.9986H137.919V74.465Z" fill="white"/>
<path d="M42.2502 96.9257L47.275 110.274L52.3434 96.9257H53.9601L48.0396 112H46.554L40.6336 96.9257H42.2502ZM60.9941 99.8532C62.1155 99.8532 63.1278 100.115 64.0308 100.64C64.9338 101.149 65.6474 101.87 66.1718 102.803C66.6961 103.735 66.9582 104.812 66.9582 106.036C66.9582 107.245 66.6815 108.322 66.1281 109.269C65.5746 110.201 64.8245 110.93 63.8778 111.454C62.9311 111.964 61.8971 112.218 60.7756 112.218C59.6687 112.218 58.6783 111.964 57.8044 111.454C56.9306 110.93 56.246 110.201 55.7508 109.269C55.2702 108.337 55.0299 107.259 55.0299 106.036C55.0299 104.812 55.2921 103.735 55.8164 102.803C56.3407 101.87 57.0544 101.149 57.9574 100.64C58.8604 100.115 59.8726 99.8532 60.9941 99.8532ZM60.9067 101.077C60.1056 101.077 59.3774 101.273 58.722 101.666C58.0666 102.045 57.5423 102.606 57.149 103.349C56.7704 104.091 56.581 104.987 56.581 106.036C56.581 107.07 56.7631 107.966 57.1272 108.723C57.4913 109.466 57.9865 110.034 58.6128 110.427C59.2536 110.806 59.9746 110.995 60.7756 110.995C61.5766 110.995 62.3267 110.798 63.0258 110.405C63.7249 110.012 64.2856 109.444 64.708 108.701C65.145 107.958 65.3634 107.07 65.3634 106.036C65.3634 105.002 65.1595 104.113 64.7517 103.371C64.3439 102.613 63.7977 102.045 63.1132 101.666C62.4432 101.273 61.7077 101.077 60.9067 101.077ZM70.5624 95.8334V112H69.0332V95.8334H70.5624ZM83.4242 100.072V112H81.8949V110.056C81.4871 110.769 80.9337 111.308 80.2346 111.672C79.5501 112.036 78.7854 112.218 77.9407 112.218C77.0959 112.218 76.3167 112.036 75.6031 111.672C74.904 111.294 74.3432 110.726 73.9209 109.968C73.4985 109.196 73.2873 108.264 73.2873 107.172V100.072H74.7947V106.888C74.7947 108.199 75.1079 109.196 75.7342 109.881C76.375 110.565 77.2416 110.908 78.3339 110.908C79.4408 110.908 80.3074 110.565 80.9337 109.881C81.5745 109.196 81.8949 108.199 81.8949 106.888V100.072H83.4242ZM91.756 99.8532C92.6008 99.8532 93.3727 100.043 94.0718 100.421C94.7855 100.785 95.3535 101.353 95.7758 102.125C96.1982 102.883 96.4094 103.807 96.4094 104.9V112H94.902V105.184C94.902 103.873 94.5816 102.875 93.9407 102.191C93.3144 101.506 92.4551 101.164 91.3628 101.164C90.2559 101.164 89.382 101.506 88.7412 102.191C88.1149 102.875 87.8018 103.873 87.8018 105.184V112H86.2725V100.072H87.8018V102.016C88.2096 101.302 88.7557 100.763 89.4403 100.399C90.1394 100.035 90.9113 99.8532 91.756 99.8532ZM101.158 101.273V109.182C101.158 109.779 101.275 110.201 101.508 110.449C101.741 110.682 102.156 110.798 102.753 110.798H104.457V112H102.425C100.561 112 99.6291 111.061 99.6291 109.182V101.273H97.9687V100.072H99.6291V97.0787H101.158V100.072H104.457V101.273H101.158ZM116.841 105.402C116.841 105.825 116.812 106.218 116.754 106.582H106.923C106.981 107.951 107.396 109.029 108.168 109.815C108.94 110.602 109.916 110.995 111.096 110.995C112.013 110.995 112.792 110.784 113.433 110.361C114.089 109.939 114.54 109.386 114.788 108.701H116.426C116.033 109.721 115.392 110.565 114.504 111.235C113.615 111.891 112.479 112.218 111.096 112.218C109.974 112.218 108.977 111.964 108.103 111.454C107.243 110.93 106.566 110.201 106.071 109.269C105.59 108.337 105.35 107.259 105.35 106.036C105.35 104.798 105.598 103.713 106.093 102.781C106.588 101.849 107.28 101.128 108.168 100.618C109.071 100.108 110.113 99.8532 111.292 99.8532C112.399 99.8532 113.368 100.101 114.198 100.596C115.043 101.077 115.691 101.739 116.142 102.584C116.608 103.429 116.841 104.368 116.841 105.402ZM115.268 105.38C115.268 104.507 115.086 103.749 114.722 103.108C114.358 102.453 113.856 101.95 113.215 101.601C112.589 101.251 111.882 101.077 111.096 101.077C109.945 101.077 108.977 101.463 108.19 102.234C107.418 102.992 106.996 104.04 106.923 105.38H115.268ZM129.632 105.402C129.632 105.825 129.603 106.218 129.545 106.582H119.714C119.772 107.951 120.187 109.029 120.959 109.815C121.731 110.602 122.707 110.995 123.886 110.995C124.804 110.995 125.583 110.784 126.224 110.361C126.879 109.939 127.331 109.386 127.578 108.701H129.217C128.824 109.721 128.183 110.565 127.294 111.235C126.406 111.891 125.27 112.218 123.886 112.218C122.765 112.218 121.767 111.964 120.893 111.454C120.034 110.93 119.357 110.201 118.862 109.269C118.381 108.337 118.141 107.259 118.141 106.036C118.141 104.798 118.388 103.713 118.883 102.781C119.379 101.849 120.07 101.128 120.959 100.618C121.862 100.108 122.903 99.8532 124.083 99.8532C125.19 99.8532 126.158 100.101 126.989 100.596C127.833 101.077 128.481 101.739 128.933 102.584C129.399 103.429 129.632 104.368 129.632 105.402ZM128.059 105.38C128.059 104.507 127.877 103.749 127.513 103.108C127.149 102.453 126.646 101.95 126.005 101.601C125.379 101.251 124.673 101.077 123.886 101.077C122.736 101.077 121.767 101.463 120.981 102.234C120.209 102.992 119.786 104.04 119.714 105.38H128.059ZM133.225 102.038C133.881 100.581 135.111 99.8532 136.917 99.8532V101.448H136.48C135.432 101.448 134.623 101.732 134.055 102.3C133.502 102.868 133.225 103.844 133.225 105.227V112H131.696V100.072H133.225V102.038ZM143.002 99.8532C144.255 99.8532 145.231 100.188 145.93 100.858C146.644 101.514 147.037 102.424 147.11 103.589H145.537C145.508 102.861 145.26 102.264 144.794 101.798C144.328 101.317 143.687 101.077 142.871 101.077C142.027 101.077 141.364 101.281 140.883 101.688C140.417 102.096 140.184 102.599 140.184 103.196C140.184 103.706 140.323 104.113 140.599 104.419C140.891 104.71 141.24 104.929 141.648 105.075C142.056 105.22 142.631 105.373 143.374 105.533C144.219 105.723 144.903 105.919 145.427 106.123C145.966 106.313 146.418 106.633 146.782 107.084C147.146 107.536 147.328 108.155 147.328 108.941C147.328 109.582 147.146 110.15 146.782 110.645C146.418 111.141 145.901 111.527 145.231 111.803C144.575 112.08 143.818 112.218 142.959 112.218C141.662 112.218 140.636 111.883 139.878 111.214C139.121 110.544 138.706 109.633 138.633 108.483H140.206C140.235 109.225 140.497 109.83 140.993 110.296C141.488 110.762 142.143 110.995 142.959 110.995C143.876 110.995 144.575 110.813 145.056 110.449C145.537 110.07 145.777 109.568 145.777 108.941C145.777 108.432 145.631 108.031 145.34 107.74C145.049 107.434 144.692 107.208 144.27 107.063C143.847 106.902 143.265 106.742 142.522 106.582C141.677 106.393 140.993 106.203 140.468 106.014C139.958 105.825 139.522 105.519 139.157 105.096C138.808 104.674 138.633 104.099 138.633 103.371C138.633 102.73 138.815 102.14 139.179 101.601C139.543 101.062 140.06 100.64 140.73 100.334C141.4 100.013 142.158 99.8532 143.002 99.8532Z" fill="white"/>
</svg>
